<svg width="673" height="682" viewBox="0 0 673 682" fill="none" xmlns="http://www.w3.org/2000/svg">
<g clip-path="url(#clip0_3_24)">
<path d="M-50.2145 362.434C-33.3212 464.434 1.50058 543.194 56.2311 603.208C111.689 663.947 185.571 705.911 282.223 731.436C291.654 733.969 301.702 732.704 310.211 727.913C318.72 723.122 325.012 715.186 327.736 705.808L455.569 273.849C457.448 267.613 457.656 260.992 456.172 254.65C454.687 248.308 451.563 242.467 447.111 237.713L446.983 237.576C442.577 232.823 437.005 229.304 430.82 227.369C424.634 225.434 418.05 225.15 411.721 226.545L-21.0929 319.65C-30.5202 321.663 -38.8084 327.234 -44.2326 335.203C-49.6568 343.172 -51.7994 352.925 -50.2145 362.434ZM-13.21 356.313L419.611 263.208L291.797 695.178C204.103 672.022 137.043 634.716 86.9524 581.195C85.9419 580.115 84.9379 579.029 83.9405 577.936C34.2398 523.439 2.45992 450.942 -13.218 356.305L-13.21 356.313Z" fill="#F0F0F0" fill-opacity="0.02"/>
<path d="M253.022 471.403C249.161 476.541 246.91 482.709 246.554 489.127C246.198 495.545 247.753 501.924 251.022 507.458C254.292 512.992 259.129 517.431 264.922 520.216C270.715 523.001 277.204 524.005 283.568 523.102C289.931 522.198 295.884 519.428 300.674 515.142C305.463 510.855 308.874 505.245 310.475 499.019C312.075 492.794 311.794 486.234 309.666 480.169C307.538 474.104 303.66 468.806 298.521 464.945C291.631 459.769 282.967 457.541 274.434 458.752C265.902 459.963 258.2 464.514 253.022 471.403Z" fill="#F0F0F0" fill-opacity="0.02"/>
<path d="M233.903 325.235C216.063 323.275 200.012 336.149 198.052 353.989C196.092 371.83 208.965 387.881 226.806 389.841C244.646 391.801 260.698 378.927 262.657 361.087C264.617 343.247 251.744 327.195 233.903 325.235Z" fill="#F0F0F0" fill-opacity="0.02"/>
<path d="M354.003 392.655L316.565 394.812L312.353 321.712L349.793 319.555L354.003 392.655ZM198.666 479.251L126.882 443.71L143.521 410.103L215.305 445.644L198.666 479.251Z" fill="#F0F0F0" fill-opacity="0.02"/>
<path d="M292.861 599.56C248.336 587.802 186.169 563.713 141.108 515.566C140.449 514.862 139.794 514.153 139.141 513.438C102.118 472.85 80.0043 424.526 69.5447 361.364L32.5491 367.492C44.2489 438.119 69.3144 492.524 111.434 538.708C162.836 595.012 233.237 622.595 283.281 635.811L292.861 599.56Z" fill="#F0F0F0" fill-opacity="0.02"/>
</g>
<defs>
<clipPath id="clip0_3_24">
<rect width="600" height="600" fill="white" transform="translate(233.992 848.063) rotate(-133.104)"/>
</clipPath>
</defs>
</svg>
