<svg width="16" height="16" viewBox="0 0 16 16" fill="none" xmlns="http://www.w3.org/2000/svg">
<path fill-rule="evenodd" clip-rule="evenodd" d="M15 8.00001C15 8.13262 14.9473 8.25979 14.8536 8.35356C14.7598 8.44733 14.6326 8.50001 14.5 8.50001L2.707 8.50001L5.854 11.646C5.94789 11.7399 6.00063 11.8672 6.00063 12C6.00063 12.1328 5.94789 12.2601 5.854 12.354C5.76011 12.4479 5.63278 12.5006 5.5 12.5006C5.36722 12.5006 5.23989 12.4479 5.146 12.354L1.146 8.35401C1.09944 8.30756 1.06249 8.25239 1.03729 8.19164C1.01208 8.1309 0.999106 8.06578 0.999106 8.00001C0.999106 7.93424 1.01208 7.86912 1.03729 7.80838C1.06249 7.74763 1.09944 7.69246 1.146 7.64601L5.146 3.64601C5.23989 3.55212 5.36722 3.49938 5.5 3.49938C5.63278 3.49938 5.76011 3.55212 5.854 3.64601C5.94789 3.7399 6.00063 3.86723 6.00063 4.00001C6.00063 4.13278 5.94789 4.26012 5.854 4.35401L2.707 7.50001L14.5 7.50001C14.6326 7.50001 14.7598 7.55269 14.8536 7.64646C14.9473 7.74022 15 7.8674 15 8.00001Z" fill="white"/>
</svg>
