<svg width="24" height="24" viewBox="0 0 24 24" fill="none" xmlns="http://www.w3.org/2000/svg">
<path d="M5.77499 2.17501C3.72585 5.0413 2.62418 8.47657 2.62418 12C2.62418 15.5234 3.72585 18.9587 5.77499 21.825C5.94156 22.0603 6.19272 22.2219 6.47585 22.2761C6.75898 22.3303 7.05209 22.2728 7.29374 22.1156L21.7031 12.9469C21.8639 12.8467 21.9966 12.7072 22.0886 12.5415C22.1805 12.3758 22.2288 12.1895 22.2288 12C22.2288 11.8105 22.1805 11.6242 22.0886 11.4585C21.9966 11.2928 21.8639 11.1533 21.7031 11.0531L7.29374 1.88439C7.05209 1.72723 6.75898 1.66971 6.47585 1.72389C6.19272 1.77807 5.94156 1.93974 5.77499 2.17501ZM12.1406 18.15C11.7595 17.967 11.4382 17.6796 11.2141 17.3211C10.99 16.9626 10.8724 16.5478 10.875 16.125C10.87 15.5283 11.1023 14.954 11.5207 14.5285C11.9392 14.1031 12.5095 13.8612 13.1062 13.8563C13.703 13.8513 14.2773 14.0836 14.7027 14.502C15.1282 14.9204 15.37 15.4908 15.375 16.0875L12.1406 18.15ZM21.3 11.6813C21.3543 11.7149 21.399 11.7618 21.4301 11.8176C21.4611 11.8734 21.4774 11.9362 21.4774 12C21.4774 12.0638 21.4611 12.1266 21.4301 12.1824C21.399 12.2382 21.3543 12.2851 21.3 12.3188L16.0875 15.6375C16.0064 15.1484 15.8055 14.6871 15.5025 14.2947C15.1996 13.9023 14.8041 13.5911 14.3515 13.3889C13.8988 13.1867 13.4031 13.0998 12.9087 13.136C12.4143 13.1722 11.9366 13.3304 11.5182 13.5964C11.0999 13.8624 10.754 14.2279 10.5114 14.6602C10.2689 15.0926 10.1373 15.5783 10.1283 16.074C10.1194 16.5696 10.2335 17.0598 10.4603 17.5006C10.6871 17.9414 11.0196 18.3191 11.4281 18.6L9.14062 20.0531C7.34802 17.7514 6.37463 14.9174 6.37463 12C6.37463 9.0826 7.34802 6.24859 9.14062 3.94688L12.3094 5.96251C12.0396 6.29053 11.8426 6.67208 11.7314 7.08192C11.6201 7.49176 11.5971 7.92055 11.664 8.33994C11.7308 8.75932 11.8859 9.15974 12.119 9.51471C12.3521 9.86968 12.658 10.1711 13.0163 10.3991C13.3746 10.627 13.7772 10.7763 14.1975 10.837C14.6178 10.8978 15.0462 10.8686 15.4544 10.7514C15.8626 10.6342 16.2413 10.4317 16.5653 10.1573C16.8894 9.88281 17.1515 9.54269 17.3344 9.15938L21.3 11.6813ZM16.6969 8.74688C16.5705 9.04945 16.3794 9.32073 16.1372 9.54173C15.8949 9.76273 15.6073 9.92811 15.2945 10.0263C14.9816 10.1245 14.651 10.1531 14.326 10.1101C14.0009 10.0672 13.6891 9.95365 13.4125 9.77756C13.1359 9.60147 12.9011 9.36704 12.7246 9.09069C12.5481 8.81435 12.4341 8.50275 12.3906 8.17774C12.3472 7.85272 12.3753 7.52213 12.473 7.20911C12.5707 6.8961 12.7356 6.60822 12.9562 6.36563L16.6969 8.74688ZM6.89062 2.51251L8.50312 3.53438C6.63753 5.96217 5.62615 8.93822 5.62615 12C5.62615 15.0618 6.63753 18.0378 8.50312 20.4656L6.89062 21.4875C6.80851 21.5363 6.71117 21.5527 6.61758 21.5337C6.524 21.5146 6.44086 21.4614 6.38437 21.3844C4.42687 18.6467 3.37446 15.3655 3.37446 12C3.37446 8.63452 4.42687 5.35328 6.38437 2.61563C6.44086 2.53862 6.524 2.4854 6.61758 2.46633C6.71117 2.44727 6.80851 2.46373 6.89062 2.51251Z" fill="white"/>
</svg>
