<svg xmlns="http://www.w3.org/2000/svg" x="0px" y="0px"
width="64" height="64"
viewBox="0 0 172 172"
style=" fill:#000000;"><g transform="rotate(-90 80 80)"><g fill="none" fill-rule="nonzero" stroke="none" stroke-width="1" stroke-linecap="butt" stroke-linejoin="miter" stroke-miterlimit="10" stroke-dasharray="" stroke-dashoffset="0" font-family="none" font-weight="none" font-size="none" text-anchor="none" style="mix-blend-mode: normal"><path d="M0,172v-172h172v172z" fill="none"></path><g fill="#ffffff"><path d="M164.34062,53.61563c3.49375,-3.49375 5.375,-8.46563 5.10625,-13.4375c-0.26875,-4.97188 -2.6875,-9.54063 -6.58438,-12.63125c-21.90312,-16.79687 -49.18125,-26.20312 -76.8625,-26.20312c-0.13438,0 -0.40313,0 -0.5375,0c-27.95,0.13438 -55.3625,9.675 -77.13125,27.00938c-1.74688,1.34375 -2.01563,3.89687 -0.67188,5.64375c1.34375,1.74687 3.89688,2.01563 5.64375,0.67188c20.425,-16.125 46.09063,-25.12813 72.15938,-25.2625c26.20312,-0.13438 51.86875,8.6 72.29375,24.59063c2.15,1.6125 3.35938,4.03125 3.49375,6.71875c0.13438,2.6875 -0.80625,5.24063 -2.6875,7.12187l-0.13438,0.13438c-3.35937,3.35938 -8.6,3.62813 -12.22812,0.80625v0c-1.075,-0.80625 -2.15,-1.74687 -3.35937,-2.55312c-36.68438,-26.06875 -86.94063,-23.78438 -121.20625,6.04687c-4.3,3.7625 -5.375,9.94375 -2.6875,14.91562l22.575,41.11875c1.34375,2.55313 3.89688,4.3 6.71875,4.70313c2.95625,0.5375 5.9125,-0.40312 8.0625,-2.41875l0.13437,-0.13438c4.56875,-4.16562 11.95938,-4.03125 16.39375,0.26875c2.41875,2.28437 3.7625,5.375 3.7625,8.6c0,3.225 -1.20937,6.31562 -3.49375,8.73438c-1.47812,1.47812 -3.35937,2.55312 -5.50937,3.09062c-2.41875,0.67188 -4.43438,2.15 -5.64375,4.16563c-0.13437,0.26875 -0.40312,0.5375 -0.40312,0.80625c-0.13437,0.13438 -0.13437,0.26875 -0.26875,0.40313c-1.20937,2.6875 -1.075,5.64375 0.40312,8.19687c1.74687,3.225 4.8375,9.00313 9.00313,16.93125c2.95625,5.64375 8.6,9.1375 15.05,9.27187c0.13437,0 0.26875,0 0.40312,0c6.18125,0 11.825,-3.225 15.05,-8.6l47.97188,-82.10312v0v0l3.7625,-6.45c2.95625,-5.24062 3.35938,-10.2125 1.34375,-15.05c3.62813,-0.5375 7.12188,-2.15 10.07813,-5.10625zM120.26563,85.32813c-6.31562,6.31562 -16.52813,6.31562 -22.84375,0c-6.31562,-6.31562 -6.31562,-16.52813 0,-22.84375c6.31562,-6.31563 16.52813,-6.31563 22.84375,0c6.31562,6.31562 6.31562,16.52813 0,22.84375z"></path></g><path d="" fill="none"></path><path d="" fill="none"></path></g></g></svg>